<svg xmlns="http://www.w3.org/2000/svg" viewBox="0 0 1560 620" width="1560" height="620"><title>Tidy</title><rect width="1560" height="620" fill="#0F1A16"/><g transform="translate(40 60) scale(0.9) translate(-30 -33)"><g stroke="#0E2A20" stroke-width="10" stroke-linecap="round" stroke-linejoin="round"><ellipse cx="256" cy="436" rx="150" ry="14" fill="#000" fill-opacity=".12" stroke="none"/><path d="M86 118 l6 -18 l6 18 l18 6 l-18 6 l-6 18 l-6 -18 l-18 -6 z" fill="#F4C542" stroke-width="5"/><line x1="428" y1="196" x2="468" y2="420" stroke="#8B5E3C" stroke-width="14"/><path d="M438 408 L498 398 L512 470 L444 482 Z" fill="#F4C542"/><path d="M458 420 L468 474 M478 416 L488 470" stroke-width="5"/><line x1="256" y1="150" x2="256" y2="104"/><path d="M256 70 l7 20 l20 7 l-20 7 l-7 20 l-7 -20 l-20 -7 l20 -7 z" fill="#F4C542" stroke-width="6"/><ellipse cx="206" cy="412" rx="34" ry="16" fill="#1E8F5E"/><ellipse cx="306" cy="412" rx="34" ry="16" fill="#1E8F5E"/><rect x="96" y="150" width="320" height="252" rx="60" fill="#3DDC97"/><circle cx="86" cy="300" r="20" fill="#3DDC97"/><circle cx="440" cy="298" r="20" fill="#3DDC97"/><ellipse cx="206" cy="312" rx="22" ry="27" fill="#0E2A20"/><ellipse cx="306" cy="312" rx="22" ry="27" fill="#0E2A20"/><circle cx="214" cy="301" r="8" fill="#fff" stroke="none"/><circle cx="314" cy="301" r="8" fill="#fff" stroke="none"/><ellipse cx="164" cy="346" rx="22" ry="12" fill="#FF8FA3" fill-opacity=".8" stroke="none"/><ellipse cx="348" cy="346" rx="22" ry="12" fill="#FF8FA3" fill-opacity=".8" stroke="none"/><path d="M232 344 Q256 368 280 344" fill="none" stroke-width="9"/></g></g><text x="268" y="560" text-anchor="middle" font-family="Inter, system-ui, sans-serif" font-weight="800" font-size="34" fill="#F5F7FA">Tidy</text><g transform="translate(560 60) scale(0.9) translate(-30 -33)"><g stroke="#0E2A20" stroke-width="10" stroke-linecap="round" stroke-linejoin="round"><ellipse cx="256" cy="436" rx="150" ry="14" fill="#000" fill-opacity=".12" stroke="none"/><path d="M86 118 l6 -18 l6 18 l18 6 l-18 6 l-6 18 l-6 -18 l-18 -6 z" fill="#F4C542" stroke-width="5"/><line x1="428" y1="196" x2="468" y2="420" stroke="#8B5E3C" stroke-width="14"/><path d="M438 408 L498 398 L512 470 L444 482 Z" fill="#F4C542"/><path d="M458 420 L468 474 M478 416 L488 470" stroke-width="5"/><ellipse cx="206" cy="412" rx="34" ry="16" fill="#1E8F5E"/><ellipse cx="306" cy="412" rx="34" ry="16" fill="#1E8F5E"/><rect x="96" y="150" width="320" height="252" rx="60" fill="#3DDC97"/><path d="M122 176 L256 262 L390 176" fill="none"/><circle cx="86" cy="300" r="20" fill="#3DDC97"/><circle cx="440" cy="298" r="20" fill="#3DDC97"/><ellipse cx="206" cy="312" rx="22" ry="27" fill="#0E2A20"/><ellipse cx="306" cy="312" rx="22" ry="27" fill="#0E2A20"/><circle cx="214" cy="301" r="8" fill="#fff" stroke="none"/><circle cx="314" cy="301" r="8" fill="#fff" stroke="none"/><ellipse cx="164" cy="346" rx="22" ry="12" fill="#FF8FA3" fill-opacity=".8" stroke="none"/><ellipse cx="348" cy="346" rx="22" ry="12" fill="#FF8FA3" fill-opacity=".8" stroke="none"/><path d="M232 344 Q256 368 280 344" fill="none" stroke-width="9"/><circle cx="398" cy="158" r="34" fill="#FF5C5C"/><text x="398" y="172" text-anchor="middle" font-family="Inter, system-ui, sans-serif" font-weight="900" font-size="42" fill="#0E2A20" stroke="none">0</text></g></g><text x="788" y="560" text-anchor="middle" font-family="Inter, system-ui, sans-serif" font-weight="800" font-size="34" fill="#F5F7FA">Tidy for mail</text><g transform="translate(1080 60) scale(0.9) translate(-30 -33)"><g stroke="#0E2A20" stroke-width="10" stroke-linecap="round" stroke-linejoin="round"><ellipse cx="256" cy="436" rx="150" ry="14" fill="#000" fill-opacity=".12" stroke="none"/><path d="M86 118 l6 -18 l6 18 l18 6 l-18 6 l-6 18 l-6 -18 l-18 -6 z" fill="#F4C542" stroke-width="5"/><line x1="428" y1="196" x2="468" y2="420" stroke="#8B5E3C" stroke-width="14"/><path d="M438 408 L498 398 L512 470 L444 482 Z" fill="#F4C542"/><path d="M458 420 L468 474 M478 416 L488 470" stroke-width="5"/><line x1="220" y1="152" x2="180" y2="96"/><line x1="292" y1="152" x2="332" y2="96"/><circle cx="180" cy="96" r="10" fill="#F4C542"/><circle cx="332" cy="96" r="10" fill="#F4C542"/><ellipse cx="206" cy="412" rx="34" ry="16" fill="#1E8F5E"/><ellipse cx="306" cy="412" rx="34" ry="16" fill="#1E8F5E"/><rect x="96" y="150" width="320" height="252" rx="60" fill="#3DDC97"/><rect x="128" y="186" width="256" height="190" rx="38" fill="#6BEBB6" stroke-width="7"/><circle cx="86" cy="300" r="20" fill="#3DDC97"/><circle cx="440" cy="298" r="20" fill="#3DDC97"/><ellipse cx="206" cy="312" rx="22" ry="27" fill="#0E2A20"/><ellipse cx="306" cy="312" rx="22" ry="27" fill="#0E2A20"/><circle cx="214" cy="301" r="8" fill="#fff" stroke="none"/><circle cx="314" cy="301" r="8" fill="#fff" stroke="none"/><ellipse cx="164" cy="346" rx="22" ry="12" fill="#FF8FA3" fill-opacity=".8" stroke="none"/><ellipse cx="348" cy="346" rx="22" ry="12" fill="#FF8FA3" fill-opacity=".8" stroke="none"/><path d="M232 344 Q256 368 280 344" fill="none" stroke-width="9"/><circle cx="398" cy="158" r="34" fill="#8FB0FF"/><path d="M382 158 l11 12 l21 -24" fill="none" stroke-width="9"/></g></g><text x="1308" y="560" text-anchor="middle" font-family="Inter, system-ui, sans-serif" font-weight="800" font-size="34" fill="#F5F7FA">Tidy for subscriptions</text></svg>
